<?xml version="1.0" standalone="no"?>
<!DOCTYPE svg PUBLIC "-//W3C//DTD SVG 20010904//EN"
 "http://www.w3.org/TR/2001/REC-SVG-20010904/DTD/svg10.dtd">
<svg version="1.0" xmlns="http://www.w3.org/2000/svg"
 width="700.000000pt" height="700.000000pt" viewBox="0 0 700.000000 700.000000"
 preserveAspectRatio="xMidYMid meet">
<metadata>
Created by potrace 1.11, written by Peter Selinger 2001-2013
</metadata>
<g transform="translate(0.000000,700.000000) scale(0.100000,-0.100000)"
fill="#000000" stroke="none">
<path d="M2268 5725 c-1 -1 -32 -6 -68 -9 -390 -37 -731 -308 -864 -684 -22
-62 -28 -83 -41 -151 -48 -254 10 -533 156 -750 161 -240 399 -394 687 -446
75 -13 277 -14 332 -1 14 3 39 8 55 12 233 45 493 222 628 427 270 408 222
946 -116 1287 -75 76 -84 84 -167 140 -139 95 -318 156 -485 166 -49 3 -95 7
-102 9 -6 2 -13 2 -15 0z"/>
<path d="M4668 5726 c-1 -2 -34 -6 -73 -10 -304 -29 -575 -192 -749 -451 -47
-70 -65 -104 -106 -200 -43 -104 -62 -205 -65 -350 -4 -195 29 -331 120 -502
147 -277 416 -471 730 -529 52 -10 256 -11 320 -2 405 57 741 362 845 768 27
107 29 125 26 270 -3 131 -8 169 -30 245 -50 170 -165 366 -275 468 -180 166
-405 267 -631 283 -47 3 -90 7 -97 9 -6 2 -13 2 -15 1z"/>
<path d="M2110 3310 c-315 -63 -580 -264 -724 -548 -35 -69 -84 -219 -91 -280
-4 -26 -8 -58 -11 -72 -5 -32 -6 -189 0 -215 2 -11 7 -41 10 -68 4 -26 10 -57
15 -70 5 -12 8 -24 8 -27 -1 -14 39 -122 66 -175 130 -263 361 -454 652 -541
81 -24 106 -27 260 -28 156 -1 178 1 267 26 185 52 339 141 467 270 137 139
222 291 272 485 25 100 34 299 17 393 -59 325 -250 596 -527 746 -74 40 -205
88 -287 104 -96 20 -297 19 -394 0z"/>
<path d="M4517 3314 c-414 -80 -735 -389 -823 -792 -20 -89 -27 -296 -13 -368
41 -208 107 -360 220 -498 132 -162 337 -292 546 -347 103 -27 316 -34 427
-14 359 65 663 320 785 657 46 126 56 188 56 348 0 197 -27 317 -106 469 -142
271 -385 462 -678 533 -105 25 -312 31 -414 12z"/>
</g>
</svg>
